<svg class="border shadow-md" viewBox="0 0 1348.5511111111111 758.5600000000001" style="width: 1348.55px; height: 758.56px;" xmlns="http://www.w3.org/2000/svg" preserveAspectRatio="none"><rect class="bg" id="bg" x="0" y="0" width="1348.5511111111111" height="758.5600000000001" fill="#110022"/><g transform="rotate(0 674.2755555555556 379.28000000000003)"><path d="M -309.71 -0.34 S -164.86 -15.51&#10;            0.00 -0.34 -6.29 -15.51&#10;            309.71 -0.34 454.57 -15.51&#10;            619.42 -0.34 764.28 -15.51&#10;            929.13 -0.34 1073.99 -25.34&#10;            1238.84 -0.34 1252.55 -15.51&#10;            1548.55 -0.34 1576.26 -27.34&#10;            1858.26 -0.34 h 110 V 958.5600000000001 H -309.71 Z" fill="#03000C" id="-1"/><path d="M -309.71 30.00 S -185.00 14.83&#10;            0.00 30.00 144.86 14.83&#10;            309.71 30.00 348.42 14.83&#10;            619.42 30.00 672.13 14.83&#10;            929.13 30.00 981.84 1.00&#10;            1238.84 30.00 1359.55 12.00&#10;            1548.55 30.00 1693.41 14.83&#10;            1858.26 30.00 h 110 V 958.5600000000001 H -309.71 Z" fill="#040010" id="0"/><path d="M -309.71 60.34 S -190.00 38.34&#10;            0.00 60.34 144.86 45.17&#10;            309.71 60.34 330.42 43.34&#10;            619.42 60.34 625.13 39.34&#10;            929.13 60.34 968.84 37.34&#10;            1238.84 60.34 1383.70 45.17&#10;            1548.55 60.34 1680.26 33.34&#10;            1858.26 60.34 h 110 V 958.5600000000001 H -309.71 Z" fill="#050014" id="1"/><path d="M -309.71 90.68 S -183.00 75.51&#10;            0.00 90.68 144.86 61.68&#10;            309.71 90.68 428.42 75.51&#10;            619.42 90.68 730.13 62.68&#10;            929.13 90.68 1073.99 75.51&#10;            1238.84 90.68 1266.55 75.51&#10;            1548.55 90.68 1693.41 75.51&#10;            1858.26 90.68 h 110 V 958.5600000000001 H -309.71 Z" fill="#060018" id="2"/><path d="M -309.71 121.03 S -164.86 105.86&#10;            0.00 121.03 -2.29 105.86&#10;            309.71 121.03 333.42 95.03&#10;            619.42 121.03 638.13 95.03&#10;            929.13 121.03 1073.99 93.03&#10;            1238.84 121.03 1262.55 105.86&#10;            1548.55 121.03 1693.41 95.03&#10;            1858.26 121.03 h 110 V 958.5600000000001 H -309.71 Z" fill="#07001c" id="3"/><path id="4" d="M -309.71 151.37 S -174.00 123.37&#10;            0.00 151.37 95.71 123.37&#10;            309.71 151.37 379.42 136.20&#10;            619.42 151.37 716.13 123.37&#10;            929.13 151.37 1073.99 133.37&#10;            1238.84 151.37 1260.55 136.20&#10;            1548.55 151.37 1543.26 136.20&#10;            1858.26 151.37 h 110 V 958.5600000000001 H -309.71 Z" fill="#080020"/><path id="5" d="M -309.71 181.71 S -164.86 166.54&#10;            0.00 181.71 19.71 162.71&#10;            309.71 181.71 441.42 166.54&#10;            619.42 181.71 764.28 159.71&#10;            929.13 181.71 1073.99 166.54&#10;            1238.84 181.71 1258.55 151.71&#10;            1548.55 181.71 1559.26 162.71&#10;            1858.26 181.71 h 110 V 958.5600000000001 H -309.71 Z" fill="#090024"/><path id="6" d="M -309.71 212.05 S -190.00 196.88&#10;            0.00 212.05 144.86 196.88&#10;            309.71 212.05 454.57 196.88&#10;            619.42 212.05 764.28 196.88&#10;            929.13 212.05 1007.84 192.05&#10;            1238.84 212.05 1373.55 186.05&#10;            1548.55 212.05 1693.41 187.05&#10;            1858.26 212.05 h 110 V 958.5600000000001 H -309.71 Z" fill="#0a0028"/><path id="7" d="M -309.71 242.40 S -227.00 227.23&#10;            0.00 242.40 144.86 213.40&#10;            309.71 242.40 454.57 227.23&#10;            619.42 242.40 661.13 227.23&#10;            929.13 242.40 1057.84 213.40&#10;            1238.84 242.40 1383.70 227.23&#10;            1548.55 242.40 1609.26 227.23&#10;            1858.26 242.40 h 110 V 958.5600000000001 H -309.71 Z" fill="#0b002c"/><path id="8" d="M -309.71 272.74 S -164.86 257.57&#10;            0.00 272.74 144.86 251.74&#10;            309.71 272.74 389.42 257.57&#10;            619.42 272.74 764.28 248.74&#10;            929.13 272.74 942.84 246.74&#10;            1238.84 272.74 1348.55 247.74&#10;            1548.55 272.74 1670.26 249.74&#10;            1858.26 272.74 h 110 V 958.5600000000001 H -309.71 Z" fill="#0c0030"/><path id="9" d="M -309.71 303.08 S -164.86 287.91&#10;            0.00 303.08 144.86 287.91&#10;            309.71 303.08 454.57 287.91&#10;            619.42 303.08 717.13 287.91&#10;            929.13 303.08 1015.84 275.08&#10;            1238.84 303.08 1383.70 287.08&#10;            1548.55 303.08 1594.26 287.91&#10;            1858.26 303.08 h 110 V 958.5600000000001 H -309.71 Z" fill="#0d0034"/><path id="10" d="M -309.71 333.42 S -164.86 305.42&#10;            0.00 333.42 113.71 310.42&#10;            309.71 333.42 454.57 318.25&#10;            619.42 333.42 764.28 318.25&#10;            929.13 333.42 1073.99 310.42&#10;            1238.84 333.42 1383.70 318.25&#10;            1548.55 333.42 1690.26 318.25&#10;            1858.26 333.42 h 110 V 958.5600000000001 H -309.71 Z" fill="#0e0038"/><path id="11" d="M -309.71 363.77 S -164.86 348.60&#10;            0.00 363.77 144.86 337.77&#10;            309.71 363.77 454.57 343.77&#10;            619.42 363.77 764.28 336.77&#10;            929.13 363.77 1073.99 340.77&#10;            1238.84 363.77 1383.70 348.60&#10;            1548.55 363.77 1680.26 334.77&#10;            1858.26 363.77 h 110 V 958.5600000000001 H -309.71 Z" fill="#0f003c"/><path id="12" d="M -309.71 394.11 S -309.00 378.94&#10;            0.00 394.11 144.86 378.94&#10;            309.71 394.11 364.42 364.11&#10;            619.42 394.11 764.28 375.11&#10;            929.13 394.11 1073.99 370.11&#10;            1238.84 394.11 1383.70 378.11&#10;            1548.55 394.11 1644.26 376.11&#10;            1858.26 394.11 h 110 V 958.5600000000001 H -309.71 Z" fill="#100040"/><path id="13" d="M -309.71 424.45 S -164.86 399.45&#10;            0.00 424.45 144.86 407.45&#10;            309.71 424.45 311.42 409.28&#10;            619.42 424.45 762.13 409.28&#10;            929.13 424.45 1062.84 409.28&#10;            1238.84 424.45 1383.70 409.28&#10;            1548.55 424.45 1604.26 395.45&#10;            1858.26 424.45 h 110 V 958.5600000000001 H -309.71 Z" fill="#110044"/><path id="14" d="M -309.71 454.79 S -308.00 439.62&#10;            0.00 454.79 93.71 439.62&#10;            309.71 454.79 454.57 439.62&#10;            619.42 454.79 764.28 439.62&#10;            929.13 454.79 1009.84 434.79&#10;            1238.84 454.79 1383.70 425.79&#10;            1548.55 454.79 1693.41 439.62&#10;            1858.26 454.79 h 110 V 958.5600000000001 H -309.71 Z" fill="#120048"/><path id="15" d="M -309.71 485.14 S -225.00 469.96&#10;            0.00 485.14 144.86 469.96&#10;            309.71 485.14 454.57 469.96&#10;            619.42 485.14 649.13 469.96&#10;            929.13 485.14 1073.99 458.14&#10;            1238.84 485.14 1250.55 469.96&#10;            1548.55 485.14 1693.41 467.14&#10;            1858.26 485.14 h 110 V 958.5600000000001 H -309.71 Z" fill="#13004c"/><path id="16" d="M -309.71 515.48 S -164.86 500.31&#10;            0.00 515.48 144.86 494.48&#10;            309.71 515.48 454.57 497.48&#10;            619.42 515.48 764.28 500.31&#10;            929.13 515.48 1073.99 500.31&#10;            1238.84 515.48 1229.55 500.31&#10;            1548.55 515.48 1653.26 500.31&#10;            1858.26 515.48 h 110 V 958.5600000000001 H -309.71 Z" fill="#140050"/><path id="17" d="M -309.71 545.82 S -232.00 530.65&#10;            0.00 545.82 144.86 530.65&#10;            309.71 545.82 454.57 529.82&#10;            619.42 545.82 764.28 519.82&#10;            929.13 545.82 953.84 526.82&#10;            1238.84 545.82 1383.70 530.65&#10;            1548.55 545.82 1693.41 529.82&#10;            1858.26 545.82 h 110 V 958.5600000000001 H -309.71 Z" fill="#150054"/><path id="18" d="M -309.71 576.16 S -164.86 560.99&#10;            0.00 576.16 144.86 560.99&#10;            309.71 576.16 375.42 558.16&#10;            619.42 576.16 663.13 560.99&#10;            929.13 576.16 1020.84 560.99&#10;            1238.84 576.16 1383.70 560.99&#10;            1548.55 576.16 1591.26 560.99&#10;            1858.26 576.16 h 110 V 958.5600000000001 H -309.71 Z" fill="#160058"/><path id="19" d="M -309.71 606.51 S -228.00 591.33&#10;            0.00 606.51 144.86 591.33&#10;            309.71 606.51 334.42 591.33&#10;            619.42 606.51 764.28 582.51&#10;            929.13 606.51 994.84 591.33&#10;            1238.84 606.51 1278.55 591.33&#10;            1548.55 606.51 1688.26 585.51&#10;            1858.26 606.51 h 110 V 958.5600000000001 H -309.71 Z" fill="#17005c"/><path id="20" d="M -309.71 636.85 S -238.00 610.85&#10;            0.00 636.85 144.86 621.68&#10;            309.71 636.85 376.42 621.68&#10;            619.42 636.85 690.13 606.85&#10;            929.13 636.85 1073.99 621.68&#10;            1238.84 636.85 1282.55 610.85&#10;            1548.55 636.85 1587.26 621.68&#10;            1858.26 636.85 h 110 V 958.5600000000001 H -309.71 Z" fill="#180060"/><path id="21" d="M -309.71 667.19 S -166.00 652.02&#10;            0.00 667.19 144.86 647.19&#10;            309.71 667.19 304.42 651.19&#10;            619.42 667.19 619.13 652.02&#10;            929.13 667.19 1073.99 652.02&#10;            1238.84 667.19 1383.70 637.19&#10;            1548.55 667.19 1693.41 652.02&#10;            1858.26 667.19 h 110 V 958.5600000000001 H -309.71 Z" fill="#190064"/><path id="22" d="M -309.71 697.53 S -164.86 668.53&#10;            0.00 697.53 43.71 682.36&#10;            309.71 697.53 313.42 667.53&#10;            619.42 697.53 764.28 670.53&#10;            929.13 697.53 1073.99 681.53&#10;            1238.84 697.53 1304.55 682.36&#10;            1548.55 697.53 1543.26 682.36&#10;            1858.26 697.53 h 110 V 958.5600000000001 H -309.71 Z" fill="#1a0068"/><path id="23" d="M -309.71 727.88 S -259.00 701.88&#10;            0.00 727.88 73.71 699.88&#10;            309.71 727.88 454.57 706.88&#10;            619.42 727.88 650.13 712.70&#10;            929.13 727.88 1038.84 712.70&#10;            1238.84 727.88 1383.70 708.88&#10;            1548.55 727.88 1693.41 707.88&#10;            1858.26 727.88 h 110 V 958.5600000000001 H -309.71 Z" fill="#1b006c"/><path id="24" d="M -309.71 758.22 S -164.86 743.05&#10;            0.00 758.22 144.86 733.22&#10;            309.71 758.22 398.42 739.22&#10;            619.42 758.22 764.28 728.22&#10;            929.13 758.22 1073.99 737.22&#10;            1238.84 758.22 1383.70 743.05&#10;            1548.55 758.22 1693.41 734.22&#10;            1858.26 758.22 h 110 V 958.5600000000001 H -309.71 Z" fill="#1c0070"/></g></svg>