<svg class="border shadow-md" viewBox="0 0 1348.5511111111111 758.5600000000001" style="width: 1348.55px; height: 758.56px;" xmlns="http://www.w3.org/2000/svg" preserveAspectRatio="none"><rect class="bg" id="bg" x="0" y="0" width="1348.5511111111111" height="758.5600000000001" fill="#020a10"/><g transform="rotate(0 674.2755555555556 379.28000000000003)"><path id="-1" d="M -774.28 -0.34 S -397.14 -15.51&#10;            0.00 -0.34 367.28 -26.34&#10;            774.28 -0.34 1151.41 -28.34&#10;            1548.55 -0.34 1809.83 -19.34&#10;            2322.83 -0.34 h 110 V 958.5600000000001 H -774.28 Z" fill="#020A10"/><path id="0" d="M -774.28 30.00 S -397.14 7.00&#10;            0.00 30.00 377.14 14.83&#10;            774.28 30.00 1151.41 2.00&#10;            1548.55 30.00 1925.69 12.00&#10;            2322.83 30.00 h 110 V 958.5600000000001 H -774.28 Z" fill="#020a13"/><path id="1" d="M -774.28 60.34 S -397.14 35.34&#10;            0.00 60.34 169.28 33.34&#10;            774.28 60.34 1151.41 31.34&#10;            1548.55 60.34 1646.83 42.34&#10;            2322.83 60.34 h 110 V 958.5600000000001 H -774.28 Z" fill="#020a16"/><path id="2" d="M -774.28 90.68 S -397.14 75.51&#10;            0.00 90.68 19.28 74.68&#10;            774.28 90.68 1101.55 75.51&#10;            1548.55 90.68 1925.69 65.68&#10;            2322.83 90.68 h 110 V 958.5600000000001 H -774.28 Z" fill="#020a19"/><path id="3" d="M -774.28 121.03 S -397.14 105.86&#10;            0.00 121.03 377.14 95.03&#10;            774.28 121.03 1151.41 105.86&#10;            1548.55 121.03 1925.69 92.03&#10;            2322.83 121.03 h 110 V 958.5600000000001 H -774.28 Z" fill="#020a1c"/><path id="4" d="M -774.28 151.37 S -397.14 136.20&#10;            0.00 151.37 223.28 126.37&#10;            774.28 151.37 1050.55 132.37&#10;            1548.55 151.37 1574.83 131.37&#10;            2322.83 151.37 h 110 V 958.5600000000001 H -774.28 Z" fill="#020a1f"/><path id="5" d="M -774.28 181.71 S -724.00 166.54&#10;            0.00 181.71 377.14 166.54&#10;            774.28 181.71 1151.41 156.71&#10;            1548.55 181.71 1925.69 157.71&#10;            2322.83 181.71 h 110 V 958.5600000000001 H -774.28 Z" fill="#020a22"/><path id="6" d="M -774.28 212.05 S -555.00 191.05&#10;            0.00 212.05 377.14 184.05&#10;            774.28 212.05 1151.41 196.88&#10;            1548.55 212.05 1924.83 196.88&#10;            2322.83 212.05 h 110 V 958.5600000000001 H -774.28 Z" fill="#020a25"/><path id="7" d="M -774.28 242.40 S -600.00 227.23&#10;            0.00 242.40 377.14 219.40&#10;            774.28 242.40 1151.41 226.40&#10;            1548.55 242.40 1925.69 227.23&#10;            2322.83 242.40 h 110 V 958.5600000000001 H -774.28 Z" fill="#020a28"/><path id="8" d="M -774.28 272.74 S -397.14 257.57&#10;            0.00 272.74 49.28 257.57&#10;            774.28 272.74 1151.41 257.57&#10;            1548.55 272.74 1925.69 257.57&#10;            2322.83 272.74 h 110 V 958.5600000000001 H -774.28 Z" fill="#020a2b"/><path id="9" d="M -774.28 303.08 S -745.00 279.08&#10;            0.00 303.08 0.28 287.91&#10;            774.28 303.08 856.55 287.91&#10;            1548.55 303.08 1925.69 287.91&#10;            2322.83 303.08 h 110 V 958.5600000000001 H -774.28 Z" fill="#020a2e"/><path id="10" d="M -774.28 333.42 S -677.00 318.25&#10;            0.00 333.42 377.14 318.25&#10;            774.28 333.42 1114.55 318.25&#10;            1548.55 333.42 1925.69 318.25&#10;            2322.83 333.42 h 110 V 958.5600000000001 H -774.28 Z" fill="#020a31"/><path id="11" d="M -774.28 363.77 S -433.00 347.77&#10;            0.00 363.77 377.14 340.77&#10;            774.28 363.77 1151.41 336.77&#10;            1548.55 363.77 1825.83 348.60&#10;            2322.83 363.77 h 110 V 958.5600000000001 H -774.28 Z" fill="#020a34"/><path id="12" d="M -774.28 394.11 S -397.14 374.11&#10;            0.00 394.11 377.14 378.94&#10;            774.28 394.11 1151.41 378.94&#10;            1548.55 394.11 1925.69 376.11&#10;            2322.83 394.11 h 110 V 958.5600000000001 H -774.28 Z" fill="#020a37"/><path id="13" d="M -774.28 424.45 S -397.14 399.45&#10;            0.00 424.45 377.14 409.28&#10;            774.28 424.45 1151.41 409.28&#10;            1548.55 424.45 1925.69 406.45&#10;            2322.83 424.45 h 110 V 958.5600000000001 H -774.28 Z" fill="#020a3a"/><path id="14" d="M -774.28 454.79 S -397.14 439.62&#10;            0.00 454.79 377.14 439.62&#10;            774.28 454.79 1151.41 439.62&#10;            1548.55 454.79 1925.69 439.62&#10;            2322.83 454.79 h 110 V 958.5600000000001 H -774.28 Z" fill="#020a3d"/><path id="15" d="M -774.28 485.14 S -682.00 469.96&#10;            0.00 485.14 377.14 469.96&#10;            774.28 485.14 1151.41 469.96&#10;            1548.55 485.14 1925.69 468.14&#10;            2322.83 485.14 h 110 V 958.5600000000001 H -774.28 Z" fill="#020a40"/><path id="16" d="M -774.28 515.48 S -397.14 500.31&#10;            0.00 515.48 377.14 500.31&#10;            774.28 515.48 797.55 487.48&#10;            1548.55 515.48 1925.69 500.31&#10;            2322.83 515.48 h 110 V 958.5600000000001 H -774.28 Z" fill="#020a43"/><path id="17" d="M -774.28 545.82 S -397.14 517.82&#10;            0.00 545.82 377.14 530.65&#10;            774.28 545.82 1132.55 520.82&#10;            1548.55 545.82 1816.83 527.82&#10;            2322.83 545.82 h 110 V 958.5600000000001 H -774.28 Z" fill="#020a46"/><path id="18" d="M -774.28 576.16 S -529.00 560.99&#10;            0.00 576.16 377.14 560.99&#10;            774.28 576.16 1151.41 560.99&#10;            1548.55 576.16 1729.83 560.99&#10;            2322.83 576.16 h 110 V 958.5600000000001 H -774.28 Z" fill="#020a49"/><path id="19" d="M -774.28 606.51 S -451.00 591.33&#10;            0.00 606.51 377.14 591.33&#10;            774.28 606.51 1151.41 591.33&#10;            1548.55 606.51 1823.83 587.51&#10;            2322.83 606.51 h 110 V 958.5600000000001 H -774.28 Z" fill="#020a4c"/><path id="20" d="M -774.28 636.85 S -700.00 617.85&#10;            0.00 636.85 377.14 609.85&#10;            774.28 636.85 1151.41 621.68&#10;            1548.55 636.85 1547.83 621.68&#10;            2322.83 636.85 h 110 V 958.5600000000001 H -774.28 Z" fill="#020a4f"/><path id="21" d="M -774.28 667.19 S -397.14 650.19&#10;            0.00 667.19 13.28 640.19&#10;            774.28 667.19 1151.41 647.19&#10;            1548.55 667.19 1625.83 652.02&#10;            2322.83 667.19 h 110 V 958.5600000000001 H -774.28 Z" fill="#020a52"/><path id="22" d="M -774.28 697.53 S -397.14 681.53&#10;            0.00 697.53 236.28 674.53&#10;            774.28 697.53 818.55 672.53&#10;            1548.55 697.53 1925.69 675.53&#10;            2322.83 697.53 h 110 V 958.5600000000001 H -774.28 Z" fill="#020a55"/><path id="23" d="M -774.28 727.88 S -397.14 712.70&#10;            0.00 727.88 318.28 703.88&#10;            774.28 727.88 1151.41 712.70&#10;            1548.55 727.88 1925.69 710.88&#10;            2322.83 727.88 h 110 V 958.5600000000001 H -774.28 Z" fill="#020a58"/><path id="24" d="M -774.28 758.22 S -397.14 739.22&#10;            0.00 758.22 188.28 740.22&#10;            774.28 758.22 1065.55 743.05&#10;            1548.55 758.22 1925.69 736.22&#10;            2322.83 758.22 h 110 V 958.5600000000001 H -774.28 Z" fill="#020a5b"/></g></svg>